<?xml version="1.0" standalone="no"?>
<!DOCTYPE svg PUBLIC "-//W3C//DTD SVG 20010904//EN"
 "http://www.w3.org/TR/2001/REC-SVG-20010904/DTD/svg10.dtd">
<svg version="1.0" xmlns="http://www.w3.org/2000/svg"
 width="512.000000pt" height="512.000000pt" viewBox="0 0 512.000000 512.000000"
 preserveAspectRatio="xMidYMid meet">
<metadata>
Created by potrace 1.11, written by Peter Selinger 2001-2013
</metadata>
<g transform="translate(0.000000,512.000000) scale(0.100000,-0.100000)"
fill="#000000" stroke="none">
<path d="M2517 4854 c-1 -1 -51 -4 -112 -7 -60 -4 -150 -14 -200 -22 -49 -9
-101 -18 -115 -20 -44 -8 -183 -45 -256 -70 -483 -160 -904 -486 -1191 -920
-202 -305 -325 -657 -368 -1048 -6 -54 -6 -371 0 -417 2 -19 7 -60 10 -90 5
-45 48 -269 59 -305 180 -613 548 -1090 1077 -1393 227 -131 491 -229 717
-267 83 -14 118 -18 217 -30 113 -13 386 -8 505 10 14 2 45 7 70 10 25 4 63
10 85 15 22 5 54 11 71 14 16 3 82 21 146 41 685 207 1236 725 1488 1398 36
96 82 253 95 326 3 14 7 37 10 51 11 59 14 77 19 120 3 25 8 72 12 105 8 73 8
319 0 395 -19 182 -29 240 -67 387 -158 616 -593 1161 -1163 1457 -241 126
-470 198 -761 241 -72 11 -340 25 -348 19z m278 -259 c51 -6 194 -31 230 -39
86 -18 269 -78 328 -106 22 -11 44 -20 47 -20 4 0 33 -14 65 -32 l58 -31 -123
-62 c-112 -56 -127 -61 -164 -54 -23 4 -63 10 -91 13 -27 4 -75 11 -105 16
-100 17 -218 35 -285 45 -22 3 -51 8 -65 10 -14 3 -40 7 -57 10 -18 3 -45 7
-60 9 -16 3 -48 8 -73 11 -25 4 -52 9 -60 10 -8 2 -20 4 -27 4 -11 1 -185 174
-191 190 -3 10 37 18 133 27 39 4 71 8 73 9 6 6 317 -3 367 -10z m-285 -335
c83 -13 115 -18 165 -25 22 -3 51 -8 65 -10 14 -3 39 -7 55 -9 17 -3 104 -16
195 -31 91 -14 181 -28 200 -31 19 -3 40 -7 46 -9 6 -2 17 -43 23 -92 7 -48
14 -95 16 -103 2 -8 6 -33 9 -55 4 -23 8 -50 10 -62 3 -12 8 -43 12 -70 3 -26
8 -57 10 -68 2 -10 6 -37 10 -60 3 -22 12 -78 19 -125 l13 -85 -46 -48 c-69
-72 -233 -235 -288 -288 l-49 -46 -71 12 c-39 7 -93 15 -120 19 -27 3 -59 8
-70 10 -12 2 -71 12 -130 21 -60 10 -116 18 -124 20 -8 1 -53 8 -100 15 -47 6
-92 15 -100 19 -13 7 -96 216 -161 409 l-22 63 163 323 c142 281 166 322 184
320 12 -2 50 -8 86 -14z m-1355 -251 c2 -13 9 -51 14 -84 6 -33 13 -82 16
-110 3 -27 8 -62 11 -76 3 -16 -1 -30 -11 -39 -8 -7 -15 -16 -15 -20 0 -10
-67 -131 -334 -606 l-56 -100 -117 -60 c-65 -32 -120 -60 -124 -62 -4 -2 -3
19 2 45 5 26 12 62 14 78 3 17 19 78 36 137 79 283 226 559 412 773 82 94 140
155 144 151 2 -2 6 -14 8 -27z m230 -364 c33 -3 76 -8 95 -10 126 -13 167 -18
180 -20 8 -1 49 -6 90 -11 41 -4 77 -8 80 -9 3 -1 37 -5 76 -9 l72 -8 86 -226
c87 -228 93 -250 77 -268 -5 -5 -79 -149 -166 -320 l-157 -311 -91 -7 c-51 -4
-119 -9 -152 -12 -33 -2 -86 -6 -118 -8 l-57 -4 -260 260 c-143 144 -258 264
-256 267 31 56 300 536 315 561 11 19 34 60 52 92 25 45 35 56 52 53 12 -2 49
-6 82 -10z m3036 -212 c101 -221 163 -442 186 -668 15 -140 7 -437 -15 -532
l-7 -32 -88 86 c-49 48 -92 96 -97 107 -4 12 -13 58 -19 103 -7 45 -14 92 -16
105 -3 12 -7 40 -10 63 -3 22 -10 65 -15 95 -5 30 -11 72 -14 93 -4 20 -8 54
-12 75 -3 20 -10 64 -16 97 -5 33 -12 78 -15 100 -2 22 -8 56 -12 75 -4 19 -7
42 -6 50 0 15 115 250 121 250 2 0 18 -30 35 -67z m-901 -98 c30 -4 64 -9 75
-11 25 -5 136 -23 250 -40 28 -5 52 -9 55 -9 3 -1 30 -5 60 -9 30 -5 64 -10
75 -12 11 -3 36 -7 55 -10 64 -10 67 -12 75 -62 10 -77 13 -93 29 -187 8 -49
17 -110 21 -135 3 -25 12 -83 20 -130 8 -47 17 -103 20 -125 3 -22 11 -78 19
-125 8 -47 13 -86 12 -86 -8 -9 -640 -324 -649 -324 -7 0 -79 25 -162 56 -82
31 -181 67 -220 81 -80 28 -84 31 -90 64 -21 126 -41 249 -55 344 -6 39 -12
77 -15 85 -2 8 -6 35 -9 60 -3 25 -8 54 -10 65 -2 11 -7 42 -10 69 -4 27 -10
54 -13 59 -8 13 377 396 396 392 9 -1 41 -6 71 -10z m-1425 -1251 l266 -266
-6 -67 c-12 -127 -13 -147 -20 -236 -4 -49 -11 -96 -15 -104 -8 -14 -625 -331
-645 -331 -6 0 -143 132 -304 294 l-293 295 162 318 c89 175 165 321 169 325
8 9 57 14 211 23 63 4 116 8 118 9 1 2 22 4 47 4 l44 2 266 -266z m1177 5
c116 -44 309 -120 315 -123 3 -2 11 -53 18 -106 3 -25 9 -67 14 -95 6 -27 13
-75 17 -105 3 -30 8 -64 10 -75 6 -33 35 -227 41 -275 3 -25 6 -49 7 -54 0 -5
-168 -95 -373 -199 l-375 -190 -257 260 -257 260 3 49 c2 27 6 97 10 157 4 59
8 115 10 125 2 9 4 33 4 53 l1 36 213 108 c116 59 264 134 327 167 63 32 120
58 126 58 7 0 72 -23 146 -51z m-2393 -459 l114 -19 299 -302 c165 -166 305
-311 313 -323 17 -27 55 -266 42 -266 -11 0 -156 85 -227 133 -270 183 -496
430 -653 715 -54 97 -62 92 112 62z m3021 -485 c14 -3 48 -8 75 -11 28 -4 52
-8 54 -10 11 -10 -156 -157 -279 -243 -229 -162 -515 -288 -765 -336 -66 -13
-130 -23 -132 -21 -4 4 109 221 123 236 8 8 184 101 392 207 l377 191 65 -4
c36 -2 77 -7 90 -9z"/>
</g>
</svg>
